<svg width="82" height="82" viewBox="0 0 82 82" fill="none" xmlns="http://www.w3.org/2000/svg">
<path fill-rule="evenodd" clip-rule="evenodd" d="M16.4 17.4248C15.3127 17.4248 14.2698 17.8568 13.5009 18.6257C12.732 19.3946 12.3 20.4374 12.3 21.5248V60.4748C12.3 61.5622 12.732 62.605 13.5009 63.3739C14.2698 64.1428 15.3127 64.5748 16.4 64.5748H65.6C66.6874 64.5748 67.7303 64.1428 68.4992 63.3739C69.2681 62.605 69.7 61.5622 69.7 60.4748V29.7248C69.7 28.6374 69.2681 27.5946 68.4992 26.8257C67.7303 26.0568 66.6874 25.6248 65.6 25.6248H36.285C35.9089 25.6248 35.5563 25.4434 35.338 25.1379L34.9894 24.6521L34.604 24.1129L34.2176 23.5748L31.0411 19.1376C30.6617 18.6077 30.1613 18.1759 29.5816 17.8781C29.0019 17.5802 28.3596 17.4248 27.7078 17.4248H16.4Z" fill="#F2994A"/>
<path d="M65.6 25.625H16.4C14.1357 25.625 12.3 27.4606 12.3 29.725V60.475C12.3 62.7394 14.1357 64.575 16.4 64.575H65.6C67.8644 64.575 69.7 62.7394 69.7 60.475V29.725C69.7 27.4606 67.8644 25.625 65.6 25.625Z" fill="#F2C94C"/>
</svg>
