<svg width="24" height="24" viewBox="0 0 24 24" fill="none" xmlns="http://www.w3.org/2000/svg">
<path d="M14.5874 15.995L16.0014 14.5815L22.0109 20.591L20.5969 22.0045L14.5874 15.995Z" fill="#616161"/>
<path d="M10 18C14.4183 18 18 14.4183 18 10C18 5.58172 14.4183 2 10 2C5.58172 2 2 5.58172 2 10C2 14.4183 5.58172 18 10 18Z" fill="#616161"/>
<path d="M16.2251 17.6699L17.6386 16.2559L21.9866 20.6039L20.5726 22.0179L16.2251 17.6699Z" fill="#37474F"/>
<path d="M10 16.5C13.5899 16.5 16.5 13.5899 16.5 10C16.5 6.41015 13.5899 3.5 10 3.5C6.41015 3.5 3.5 6.41015 3.5 10C3.5 13.5899 6.41015 16.5 10 16.5Z" fill="#64B5F6"/>
<path d="M13.4499 7.1C12.5999 6.1 11.3499 5.5 9.99993 5.5C8.64993 5.5 7.39993 6.1 6.54993 7.1C6.34993 7.3 6.39993 7.65 6.59993 7.8C6.79993 8 7.14993 7.95 7.29993 7.75C7.99993 6.95 8.94993 6.5 9.99993 6.5C11.0499 6.5 11.9999 6.95 12.6999 7.75C12.7999 7.85 12.9499 7.95 13.0999 7.95C13.1999 7.95 13.3499 7.9 13.3999 7.85C13.5999 7.65 13.5999 7.3 13.4499 7.1Z" fill="#BBDEFB"/>
</svg>
