<svg width="20" height="20" viewBox="0 0 20 20" fill="none" xmlns="http://www.w3.org/2000/svg">
<path d="M9.61401 14.0155C9.61401 14.0155 9.9062 15.2593 11.525 16.1843C12.5453 16.7671 14.6906 17.3718 15.7859 16.5624C17.0328 15.6405 17.3015 14.728 17.3609 14.3921C17.4203 14.0562 17.2421 13.1296 17.2421 13.1296L15.1906 12.3999C15.1906 12.3999 11.7984 13.228 11.739 13.228C11.6812 13.2296 9.61401 14.0155 9.61401 14.0155Z" fill="#E06767"/>
<path d="M17.2485 14.7921C17.2938 14.6749 17.322 14.5749 17.3423 14.4921C16.9798 14.3952 16.5595 14.239 16.1782 14.0765C16.2095 14.0624 16.2407 14.0483 16.2704 14.0327C16.4579 13.9374 16.6423 13.8265 16.7751 13.664C16.9188 13.489 16.9845 13.2624 16.9766 13.0358L15.1907 12.3999C15.1907 12.3999 11.7985 13.228 11.7391 13.228C11.6798 13.228 9.61415 14.014 9.61259 14.0155C9.58602 14.0249 9.80477 14.4843 9.81884 14.5077C10.0173 14.878 10.4735 15.3937 10.786 15.6733C10.786 15.6733 10.6423 15.3421 10.9141 15.2187C11.0345 15.164 11.1798 15.1905 11.3032 15.239C11.6126 15.3624 12.0001 15.8374 12.9688 16.3468C13.6266 16.6937 14.3032 16.9593 14.522 16.9499C14.8141 16.9374 15.3438 16.7952 15.3438 16.7952C15.3438 16.7952 14.6688 16.7312 13.5845 16.2265C13.2563 16.0733 12.0423 15.4765 11.9266 15.1437C11.8938 15.0499 11.7766 14.8843 11.9891 14.7905C12.3141 14.6452 13.2001 15.4093 13.961 15.7593C14.8673 16.1749 15.8548 16.5077 15.8548 16.5077C15.961 16.4265 16.061 16.3452 16.1548 16.264C15.6501 16.1343 15.1563 15.9562 14.6798 15.7483C14.2048 15.5421 13.7391 15.2749 13.3095 14.9812C13.036 14.7937 12.847 14.478 13.1407 14.4374C13.622 14.3702 14.2438 14.828 14.8673 15.1515C15.4298 15.4437 16.1048 15.578 16.7376 15.6577C16.8188 15.5562 16.9516 15.3624 16.9516 15.3624C16.9516 15.3624 16.7126 15.3218 16.0063 15.1655C15.697 15.0968 15.397 15.0077 15.122 14.853C15.0501 14.8124 14.7985 14.5546 15.1423 14.4358C15.486 14.3171 15.8126 14.553 16.3313 14.6733C16.8516 14.7968 17.2438 14.803 17.2485 14.7921Z" fill="#B05353"/>
<path d="M18.4376 8.3283C18.4376 8.3283 18.3985 7.06268 17.7188 5.94237C17.1329 4.97674 16.2969 4.8783 16.2969 4.8783C16.2969 4.8783 16.1313 4.27049 15.5501 3.80487C14.9688 3.33924 13.7735 2.95018 13.7735 2.95018C11.3797 1.87205 9.88756 2.75487 9.88756 2.75487C9.88756 2.75487 6.33756 1.91112 3.49537 4.32205C3.49537 4.32205 2.061 4.99705 1.47506 6.27205C1.15162 6.9783 1.29069 8.12987 1.29069 8.12987C0.295374 9.28612 0.568811 11.1174 1.686 12.0346C2.21881 12.4705 2.87662 12.7596 3.56256 12.833C3.83131 12.8611 3.96725 12.7971 4.07975 13.0705C4.24537 13.4736 4.37506 13.8877 4.70787 14.1767C5.04694 14.4705 5.44225 14.6986 5.86256 14.8549C6.67819 15.1564 7.60006 15.1892 8.4235 14.8939C8.69694 14.7955 9.5735 14.7861 9.5735 14.7861C9.5735 14.7861 10.0376 15.1689 11.6844 15.108C13.3313 15.0471 14.0266 14.3361 14.4032 14.2033C14.6922 14.1017 15.0469 13.8783 15.3626 13.9361C15.5422 13.9689 15.7032 14.0611 15.8672 14.1392C16.3266 14.3596 16.8422 14.4799 17.3485 14.433C19.2626 14.2564 19.4641 12.0517 19.2751 10.5361C19.0844 9.00643 18.4376 8.3283 18.4376 8.3283Z" fill="#FFB3B3"/>
<path d="M4.30008 11.3204C4.26101 11.4095 3.87039 12.2626 3.54226 12.4001C2.97508 12.6392 2.09695 12.0704 1.76101 11.9142C1.69539 11.8829 1.65164 11.961 1.65164 11.961C1.59695 12.0313 1.73914 12.1767 1.81101 12.2282C2.08914 12.4282 2.75633 12.8813 3.25164 13.0048C3.8907 13.1642 4.37039 13.0048 4.37039 13.0048C4.37039 13.0048 4.54539 11.7251 4.55945 11.6673C4.57351 11.6095 4.55945 11.1001 4.55945 11.1001L4.30008 11.3204Z" fill="#EA6363"/>
<path d="M9.88286 14.9314C9.88286 14.9314 9.56099 14.8814 9.06724 14.8893C8.57349 14.8971 7.87817 15.0393 7.87817 15.0393C7.87817 15.0393 8.3688 14.8158 8.58755 14.6205C8.8063 14.4236 8.85005 13.9455 8.81411 13.6611C8.77661 13.3705 8.67817 13.2236 7.93442 13.0689L10.1625 12.9455C9.41567 13.4424 9.27974 14.4658 9.88286 14.9314ZM16.6282 10.2299C16.2407 10.2814 15.8641 10.208 15.5297 10.0096C15.3844 9.92207 15.3688 9.71582 15.4969 9.60488C15.5829 9.53145 15.7063 9.52676 15.8016 9.58926C16.3422 9.94394 16.8922 9.71113 17.186 9.52832C17.936 9.06113 18.3079 8.23301 18.2579 7.36426C18.4079 7.62988 18.5172 7.92363 18.5438 8.22676C18.611 8.9627 18.0813 9.53613 17.4891 9.90645C17.2063 10.0846 16.9141 10.1924 16.6282 10.2299Z" fill="#F07371"/>
<path d="M18.3032 10.9626C18.1344 10.9626 17.9516 10.9267 17.7782 10.8204C17.6001 10.711 17.5001 10.5642 17.411 10.3829C17.3376 10.2345 17.2344 10.1423 17.0454 10.1563C16.9126 10.1673 16.7844 10.2423 16.6516 10.2235C16.8282 9.91104 17.111 9.66104 17.4438 9.5251C17.5969 9.4626 17.7688 9.42353 17.9251 9.47197C17.9422 9.58135 17.8688 9.68291 17.8266 9.78604C17.7532 9.96885 17.7829 10.1876 17.9016 10.3438C17.9829 10.4501 18.1376 10.5642 18.2797 10.5548C18.3735 10.5485 18.4391 10.4688 18.5313 10.461C18.8172 10.4407 18.8891 10.8595 18.6079 10.9251C18.5172 10.947 18.4141 10.9626 18.3032 10.9626ZM15.5532 5.16885C15.4391 5.18291 15.3235 5.17041 15.2641 5.07041C15.1876 4.94072 15.2516 4.77822 15.3938 4.72822C15.786 4.59072 16.2266 4.61572 16.6094 4.76885C16.9438 4.90322 17.1454 5.13135 17.2782 5.28604C17.411 5.44072 17.5016 5.74697 17.5016 5.74697C17.1688 5.45791 16.9797 5.00322 15.5532 5.16885ZM14.0563 4.86729C13.7188 4.85322 14.0469 4.86729 14.0438 4.86729C13.5094 4.86729 12.8704 4.68291 12.7844 4.07353C12.6297 2.96416 14.2672 3.39541 14.8672 3.47822C14.8672 3.47822 14.3938 2.99228 13.7735 2.9501C13.4844 2.93135 13.186 2.93916 12.9047 3.01416C12.5954 3.09697 12.4391 3.32978 12.1579 3.44541C11.9454 3.53135 11.7032 3.49853 11.4844 3.43291C11.2829 3.37197 10.6282 3.02041 10.6094 3.45791C10.6047 3.57822 10.6907 3.68135 10.8079 3.69854C11.2829 3.76572 11.9391 3.97822 12.1829 4.43135C12.2954 4.63916 12.3219 4.89072 12.2563 5.11729C12.2251 5.22822 12.1797 5.37041 12.2719 5.44072C12.3422 5.49541 12.4501 5.45947 12.5141 5.39697C12.5782 5.33447 12.6188 5.2501 12.6829 5.1876C12.8829 4.99072 13.0641 5.13135 13.2766 5.20635C13.5219 5.29385 13.7813 5.33604 14.0422 5.33604C14.0485 5.33604 13.5844 5.29072 14.0594 5.33604C14.5329 5.37979 14.3922 4.88135 14.0563 4.86729ZM6.54537 4.35791C6.28599 4.12353 6.16255 3.21104 6.90787 2.74072C6.90787 2.74072 6.50162 2.75478 6.16255 3.02041C5.87349 3.24697 5.81568 3.63916 5.88443 4.05322C5.90162 4.15947 5.8188 4.25635 5.71099 4.2501C5.32349 4.22979 4.93755 4.3001 4.60474 4.45322C4.47818 4.5126 4.43443 4.67197 4.50943 4.79072C4.54035 4.83873 4.58774 4.87379 4.6427 4.88933C4.69765 4.90487 4.75638 4.89981 4.80787 4.8751C5.1813 4.70322 5.72505 4.61103 6.16099 4.72041C6.60318 4.83135 6.91412 4.95947 7.26099 5.56104C7.32037 5.6626 7.44849 5.69853 7.54537 5.63291C7.62037 5.58135 7.65162 5.48447 7.62037 5.4001C7.32349 4.58135 6.89537 4.67353 6.54537 4.35791ZM7.51255 7.17197C7.50419 7.14207 7.48994 7.11412 7.47066 7.08978C7.45137 7.06544 7.42742 7.04519 7.40022 7.03021C7.37302 7.01522 7.3431 7.00581 7.31222 7.00252C7.28134 6.99923 7.25012 7.00212 7.22037 7.01103C6.84537 7.12353 6.30318 7.09072 6.06099 6.84697C5.73755 6.09854 5.49224 5.96572 5.10005 5.83291C4.9438 5.77979 4.78755 5.91416 4.80318 6.07666C4.81255 6.16885 4.87349 6.24697 4.96255 6.27354C5.24068 6.35635 5.52037 6.72978 5.66412 7.11103C5.79537 7.45635 5.81099 7.91104 5.51412 8.23603C5.43755 8.32041 5.42193 8.44229 5.48912 8.53447L5.49224 8.53916C5.57818 8.65791 5.75005 8.66728 5.85005 8.55947C5.9563 8.44385 6.06724 8.29385 6.11412 8.14229C6.16255 7.98135 6.14849 7.8376 6.28755 7.70947C6.44224 7.56572 6.58912 7.59541 6.77505 7.59541C6.96568 7.59541 7.17037 7.52666 7.35005 7.4626C7.47193 7.42353 7.55005 7.29385 7.51255 7.17197ZM2.72193 9.29072C2.6688 9.29072 2.61724 9.28916 2.56255 9.28447C1.83912 9.22197 1.45943 8.70166 1.28755 8.13135C1.11568 7.56104 1.26099 6.94072 1.26099 6.94072C1.47974 8.62822 2.35943 8.79541 2.60318 8.81729C3.06412 8.85791 3.50474 8.65791 3.62505 8.35322C3.81568 7.87197 3.2313 7.4001 2.94537 7.10791C2.7563 6.91416 2.68599 6.58447 2.73599 6.32354C2.76099 6.18916 2.82037 6.05791 2.9313 5.97197C3.04068 5.8876 3.31568 5.81103 3.27818 6.05166C3.26724 6.12666 3.2188 6.18916 3.18912 6.25791C2.97505 6.74541 3.73599 7.19697 3.9438 7.55791C4.11412 7.8501 4.18912 8.20322 4.06099 8.5251C3.87974 8.98447 3.3313 9.29072 2.72193 9.29072Z" fill="#F07371"/>
<path d="M2.55461 9.16541C2.68118 9.18103 2.81086 9.15916 2.92493 9.10291C3.0343 9.04978 3.13274 8.96541 3.25305 8.95603C3.31086 8.95291 3.38274 8.98728 3.37336 9.04353C3.37024 9.06384 3.50305 9.10134 3.48586 9.11228C3.17493 9.30603 2.38743 9.49822 2.93118 10.8935C2.97493 11.0045 2.94055 11.1295 2.83899 11.1904C2.72024 11.2623 2.56243 11.2154 2.50618 11.0888C2.35774 10.7623 2.28586 10.4013 2.29055 10.042C2.29524 9.69197 2.33118 9.38572 2.0968 9.09353C2.0718 9.06384 2.04524 9.02166 2.06555 8.98884C2.07805 8.96853 2.10305 8.96072 2.12649 8.95447C2.22336 8.92947 2.32649 8.90291 2.42493 8.92322C2.46868 8.93259 2.95774 9.20291 2.96243 9.19353M16.4937 11.4217C16.1702 11.3826 15.8374 11.406 15.5312 11.5217C15.2718 11.6201 15.0781 11.8185 14.7796 11.7529C14.6015 11.7138 14.4437 11.5998 14.3327 11.4545C14.0984 11.1498 14.1296 10.8295 14.2171 10.4826C14.3046 10.1388 14.2952 9.74041 14.1406 9.41697C14.0999 9.33103 14.0312 9.25447 13.9421 9.22322C13.8515 9.19197 13.7406 9.21853 13.6874 9.29822C13.6343 9.37947 13.6546 9.48728 13.6734 9.58259C13.7343 9.87478 13.8124 10.1904 13.7249 10.4763C13.6421 10.7482 13.5281 10.992 13.3327 11.2013C12.9624 11.5998 12.4249 11.7826 11.9609 11.6654C11.6187 11.5795 11.3421 11.3404 11.1562 10.9748C11.0906 10.6888 11.0218 10.317 10.6671 10.2763C10.5952 10.2685 10.5171 10.2795 10.4624 10.3248C10.4077 10.3717 10.3827 10.4467 10.3827 10.5185C10.3827 10.6982 10.5546 10.8326 10.5859 11.0092C10.6843 11.5498 10.3249 12.1685 9.77961 12.4685C9.35774 12.7013 8.19993 12.8326 7.16243 11.9623C7.11868 11.9248 7.11868 11.8529 7.07649 11.8138C7.04836 11.7888 7.01243 11.7732 6.97649 11.767C6.8218 11.7373 6.66086 11.8842 6.67493 12.0404C6.68743 12.1826 6.80461 12.292 6.9093 12.3888C7.18118 12.642 7.0593 12.7435 7.01243 12.8795C7.00149 12.9138 6.98118 12.9451 6.97805 12.981C6.96868 13.081 7.1218 13.0482 7.2218 13.0404C7.3218 13.0326 7.41243 12.9779 7.5093 12.9498C7.63118 12.9154 8.18899 13.1201 8.29836 13.1435C8.61555 13.2123 8.72493 13.2435 8.99836 13.2435C9.34055 13.2435 9.63118 13.4201 9.88118 13.1857C10.2374 12.8529 10.514 12.6357 10.8296 12.5279C10.9859 12.4748 11.1734 12.4482 11.3046 12.5498C11.3984 12.6217 11.4406 12.742 11.4734 12.8545C11.5406 13.0857 11.5906 13.3217 11.689 13.542C11.7874 13.7607 11.9437 13.9654 12.1624 14.0638C12.2312 14.0951 12.3093 14.1154 12.3843 14.0982C12.4593 14.081 12.5249 14.017 12.5265 13.942C12.5281 13.8904 12.5015 13.8435 12.4734 13.8013C12.3656 13.6295 12.2374 13.4701 12.1421 13.292C12.0468 13.1138 11.9843 12.906 12.0234 12.7076C12.0952 12.3404 12.5202 12.2373 12.8249 12.1451C13.1171 12.056 13.4093 11.8888 13.7234 11.906C13.9202 11.917 14.3374 12.1467 14.4624 12.2998C14.4874 12.331 14.4984 12.3701 14.5046 12.4107C14.5577 12.7404 14.3156 13.0373 14.0859 13.2779C14.0452 13.3201 14.0031 13.3842 14.0374 13.4326C14.0499 13.4498 14.0687 13.4592 14.0874 13.4654C14.2531 13.5295 14.4468 13.4732 14.5874 13.3654C14.8968 13.131 15.0046 12.7295 15.2687 12.4513C15.4859 12.2248 15.7781 12.0763 16.0734 11.9795C17.1296 11.6326 17.1843 12.4638 17.3734 12.9295C17.5624 13.3951 17.8421 13.0732 17.8452 12.9451C17.8562 12.3373 17.4671 11.5373 16.4937 11.4217Z" fill="#F07371"/>
<path d="M6.60163 13.8889C6.4407 13.8795 6.33445 13.7123 6.40007 13.5639C6.50476 13.3264 6.70163 13.0904 6.95632 12.9092C7.34382 12.6342 7.73132 12.5842 8.12038 12.6951L8.20007 13.092C7.94851 13.0201 7.49851 13.0998 7.2282 13.292C7.03288 13.431 6.89851 13.6014 6.83288 13.7435C6.7907 13.8357 6.70163 13.8951 6.60163 13.8889Z" fill="#F07371"/>
<path d="M16.7203 6.68749C16.6906 6.48905 16.5359 6.30467 16.3359 6.29842C16.2375 6.2953 16.1281 6.34686 16.1015 6.44217C16.089 6.48436 16.0953 6.53124 16.0968 6.57499C16.1093 6.89999 15.8484 7.21405 15.5265 7.25936C15.1625 7.31092 14.8937 7.08592 14.6187 6.89842C14.3562 6.7203 14.0281 6.59999 13.725 6.51405C12.9171 6.28749 12.2218 6.43905 11.6921 7.10624C11.4953 7.35467 11.3078 7.62655 11.0312 7.77967C10.5968 8.0203 9.67964 8.03749 9.40933 7.56561C9.05464 6.94842 9.04214 5.05155 10.1796 5.26717C10.5312 5.33436 10.7921 5.63905 10.8171 5.86561C10.8328 6.00936 10.7437 6.13436 10.6296 6.23124C10.5876 6.26728 10.5598 6.31713 10.5512 6.37182C10.5426 6.42651 10.5538 6.48248 10.5828 6.52967C10.6578 6.65311 10.8265 6.67967 10.9359 6.58749C11.2562 6.31249 11.3062 6.02342 11.2828 5.81405C11.2093 5.14686 10.4578 4.7703 9.86089 4.75311C9.72964 4.74842 9.57808 4.70624 9.52808 4.5828C9.5062 4.52967 9.50933 4.47186 9.50464 4.41561C9.47339 4.01717 9.06558 3.58436 8.74683 3.37811C8.62964 3.30155 8.47183 3.35155 8.41089 3.47655C8.35933 3.58436 8.39995 3.71092 8.49995 3.77655C8.80308 3.97655 8.98745 4.26717 9.04839 4.64217C9.11714 5.07342 9.02339 5.51405 8.84214 5.90624C8.75151 6.10311 8.64058 6.29374 8.51089 6.46874C8.39995 6.6203 8.24214 6.72186 8.17026 6.90311C8.16245 6.92342 8.15464 6.9453 8.16089 6.96561C8.17183 7.00467 8.22026 7.01561 8.26089 7.01717C8.37651 7.02186 8.49214 6.99686 8.59526 6.94842C8.53589 7.17811 8.68901 7.40155 8.81558 7.60155C8.94214 7.80155 9.0437 8.07342 8.89995 8.26249C8.8937 8.2703 8.88589 8.27811 8.87964 8.28749C8.57183 8.41717 8.27495 8.59374 8.0437 8.83749C7.64526 9.25936 7.34995 9.63905 6.76714 9.82655C6.25151 9.99374 5.67808 9.97342 5.17651 9.77186C5.07964 9.7328 4.9812 9.68749 4.87651 9.69061C4.77183 9.69374 4.66089 9.76717 4.65776 9.87186C4.6562 9.92499 4.68276 9.97342 4.7062 10.0219C4.97183 10.5609 4.48433 10.9109 4.27651 11.3797C4.0812 11.8172 3.9812 12.2969 3.9812 12.7765C3.9812 13.3 4.16089 13.6812 4.80933 14.3469C5.10308 14.6469 5.48745 14.825 5.81089 14.9297C5.91245 14.9625 5.97651 14.8234 5.88589 14.7656C5.2187 14.3406 5.11401 13.964 4.91089 13.5765C4.42339 12.6437 4.9562 11.2219 5.87339 10.5C6.22808 10.2219 6.7312 10.2437 7.15933 10.3906C7.6187 10.5484 7.89058 10.8859 8.23589 11.2C8.32964 11.2859 8.44995 11.3781 8.57026 11.3406C8.67964 11.3078 8.73433 11.1781 8.72183 11.0656C8.70933 10.9531 8.64526 10.8531 8.58433 10.7578C8.51714 10.6531 8.44995 10.5484 8.3812 10.4437C8.29214 10.3062 8.19995 10.1625 8.17183 9.99999C8.14058 9.82342 8.29683 9.21249 9.7812 8.83436C10.0328 8.7703 10.289 8.79842 10.5421 8.8703C10.8828 8.96717 11.1265 9.21717 11.4125 9.41249C11.4921 9.46717 11.5796 9.52499 11.6765 9.52811C11.7984 9.5328 11.9171 9.44061 11.9421 9.3203C11.9765 9.15467 11.8515 9.00624 11.7687 8.85936C11.4937 8.37499 11.814 7.72811 12.2187 7.41874C12.5812 7.14374 13.0578 7.04217 13.5093 7.08905C14.1968 7.15936 14.875 7.61874 15.0328 8.29061C15.0687 8.44217 15.1125 8.63749 15.2671 8.6578C15.439 8.68124 15.5312 8.45155 15.514 8.27811C15.4968 8.10467 15.4406 7.90936 15.5484 7.77186C15.5984 7.70936 15.6734 7.67342 15.7468 7.64061C15.9578 7.54842 16.1781 7.47186 16.3671 7.33905C16.5562 7.2078 16.714 7.00624 16.7281 6.77655C16.7265 6.74999 16.725 6.71874 16.7203 6.68749Z" fill="#EA6363"/>
<path d="M8.25925 7.01571C8.37488 7.0204 8.4905 6.9954 8.59363 6.94696C8.53425 7.17665 8.68738 7.40008 8.81394 7.60008C8.90613 7.74696 9.03425 8.0079 8.89519 8.27508C8.89519 8.27508 9.10457 8.1579 9.44363 8.05946C9.78269 7.96102 10.1139 7.93915 10.1139 7.93915C9.87332 7.88915 9.51707 7.75321 9.40769 7.56415C9.053 6.94696 9.0405 5.05008 10.178 5.26571C10.5296 5.3329 10.7905 5.63758 10.8155 5.86415C10.8311 6.0079 10.7421 6.1329 10.628 6.22977C10.586 6.26582 10.5582 6.31566 10.5496 6.37035C10.541 6.42505 10.5522 6.48101 10.5811 6.52821C10.6561 6.65165 10.8249 6.67821 10.9343 6.58602C11.2546 6.31102 11.3046 6.02196 11.2811 5.81258C11.2077 5.1454 10.4561 4.76883 9.85925 4.75165C9.728 4.74696 9.57644 4.70477 9.52644 4.58133C9.50457 4.52821 9.50769 4.4704 9.503 4.41415C9.47175 4.01571 9.06394 3.5829 8.74519 3.37665C8.628 3.30008 8.47019 3.35008 8.40925 3.47508C8.35769 3.5829 8.39832 3.70946 8.49832 3.77508C8.80144 3.97508 8.98582 4.26571 9.04675 4.64071C9.1155 5.07196 9.02175 5.51258 8.8405 5.90477C8.74988 6.10165 8.63894 6.29227 8.50925 6.46727C8.39832 6.61883 8.2405 6.7204 8.16863 6.90165C8.16082 6.92196 8.153 6.94383 8.15925 6.96415C8.17019 7.00321 8.21863 7.01415 8.25925 7.01571Z" fill="#F07371"/>
</svg>
    