<svg width="18" height="18" viewBox="0 0 18 18" fill="none" xmlns="http://www.w3.org/2000/svg">
<path d="M5.62207 8.76514C5.62207 8.39218 5.77023 8.03449 6.03395 7.77077C6.29767 7.50704 6.65536 7.35889 7.02832 7.35889C7.40128 7.35889 7.75897 7.50704 8.02269 7.77077C8.28641 8.03449 8.43457 8.39218 8.43457 8.76514V13.5014H12.3439V11.2514H16.8664V16.1789C16.8664 16.5614 16.5571 16.8764 16.1689 16.8764H10.9714C9.57082 16.8764 8.43457 15.7401 8.43457 14.3395V15.4701C8.43457 15.8431 8.28641 16.2008 8.02269 16.4645C7.75897 16.7282 7.40128 16.8764 7.02832 16.8764C6.65536 16.8764 6.29767 16.7282 6.03395 16.4645C5.77023 16.2008 5.62207 15.8431 5.62207 15.4701V8.76514Z" fill="#D6A089"/>
<path d="M7.33774 5.42981L16.2534 9.29981C16.6302 9.46293 16.8721 9.82856 16.8721 10.2392V15.7573H13.0415C11.984 15.7573 11.0334 15.2736 10.4427 14.4636C10.1671 14.0867 9.65524 13.9854 9.25024 14.2104L7.41649 15.2342C7.03016 15.4565 6.57167 15.5172 6.1408 15.4031C5.70993 15.289 5.34156 15.0094 5.11587 14.625H4.49993V12.6562L3.75462 12.6636C3.63009 12.877 3.45194 13.0541 3.23783 13.1775C3.02372 13.3008 2.78108 13.366 2.53399 13.3667C2.29212 13.3667 2.05024 13.3048 1.83087 13.1754C1.15587 12.7817 0.925242 11.9267 1.31337 11.2517L4.23837 6.36918C4.55755 5.86814 5.04559 5.49795 5.61413 5.32564C6.18266 5.15332 6.7941 5.19028 7.33774 5.42981ZM4.57024 11.25H6.89055V11.6381L8.16462 10.9029C8.25012 10.8538 8.3373 10.8129 8.42618 10.7803C8.38062 10.2936 8.15493 9.84139 7.79335 9.51238C7.43177 9.18337 6.96036 9.00124 6.47149 9.00168C6.09462 9.00168 5.74587 9.76668 5.56024 10.0986L4.57024 11.25Z" fill="#EEBFAA"/>
<path d="M10.7916 1.17147L12.1304 1.94772C12.2991 2.04334 12.3554 2.25709 12.2597 2.42584L6.97167 11.5912L5.72855 12.309C5.52847 12.4249 5.3543 12.5806 5.2168 12.7664C5.07929 12.9523 4.98139 13.1644 4.92914 13.3897C4.87689 13.6149 4.87141 13.8485 4.91303 14.0759C4.95465 14.3033 5.04249 14.5198 5.17111 14.712L4.85724 15.2565C4.76724 15.414 4.63786 15.5546 4.48599 15.6615L2.93911 16.8315C2.89824 16.8593 2.85036 16.875 2.80096 16.8768C2.75157 16.8787 2.70265 16.8666 2.6598 16.842C2.61695 16.8173 2.58192 16.7811 2.55869 16.7375C2.53547 16.6938 2.525 16.6445 2.52849 16.5952L2.74224 14.6602C2.75911 14.469 2.81536 14.2833 2.91099 14.1202L10.3135 1.30084C10.4091 1.13209 10.6229 1.07584 10.7916 1.17147Z" fill="#F95725"/>
<path d="M4.81039 15.3315L2.88102 14.1738C2.80313 14.3253 2.75591 14.4906 2.74208 14.6604L2.59302 16.0087L3.41933 16.4677L4.48583 15.6616C4.61295 15.5716 4.72433 15.4586 4.81039 15.3315Z" fill="#FBB8AB"/>
<path d="M2.63528 15.5938L2.52841 16.595C2.51153 16.8144 2.75903 16.955 2.93903 16.8313L3.72653 16.2294L2.63528 15.5938Z" fill="black"/>
<path d="M9.22217 3.19072L11.1684 4.31572L11.7534 3.30322L9.80717 2.17822L9.22217 3.19072Z" fill="#D3D3D3"/>
</svg>
